# File created by Blade
# Date/Time:  Tue Sep 30 19:12:16 2014
#---------------------------------------------------------
:version 1.10
:name HOM
:units
  mass 1.0
  length 1.000000
  angle deg
:documentation
     Acclaim Skeleton File
:root
   axis xyz
   order TX TY TZ RX RY RZ
   position 0.000000 0.000000 0.000000
   orientation 0 0 0
:bonedata
   begin
      id 1
      name Spine_dum
      direction 0.000000 1.000000 0.000000
      length 7.508948
      axis 0.0 0.0 0.0 xyz
   end
   begin
      id 2
      name LeftUpLeg_dum
      direction 1.000000 0.000000 0.000000
      length 3.000560
      axis 0.0 0.0 0.0 xyz
   end
   begin
      id 3
      name RightUpLeg_dum
      direction -1.000000 0.000000 0.000000
      length 3.000560
      axis 0.0 0.0 0.0 xyz
   end
   begin
      id 4
      name Spine
      direction 0.000000 1.000000 0.000000
      length 0.000000
      axis 0.0 0.0 0.0 xyz
      dof rx ry rz
   end
   begin
      id 5
      name Spine_dum1
      direction 0.000000 1.000000 0.000000
      length 13.861154
      axis 0.0 0.0 0.0 xyz
   end
   begin
      id 6
      name Spine_dum2
      direction 0.000000 1.000000 0.000000
      length 8.204781
      axis 0.0 0.0 0.0 xyz
   end
   begin
      id 7
      name Spine_dum3
      direction 0.000000 1.000000 0.000000
      length 8.204781
      axis 0.0 0.0 0.0 xyz
   end
   begin
      id 8
      name Head
      direction 0.000000 1.000000 0.000000
      length 4.527550
      axis 0.0 0.0 0.0 xyz
      dof rx ry rz
   end
   begin
      id 9
      name LeftShoulder
      direction 1.000000 0.000000 0.000000
      length 6.635956
      axis 0.0 0.0 -90.0 xyz
      dof rx ry rz
   end
   begin
      id 10
      name LeftArm
      direction 1.000000 0.000000 0.000000
      length 10.274218
      axis 0.0 0.0 -90.0 xyz
      dof rx ry rz
   end
   begin
      id 11
      name LeftForeArm
      direction 1.000000 0.000000 0.000000
      length 8.522147
      axis 0.0 0.0 -90.0 xyz
      dof ry rz rx
   end
   begin
      id 12
      name LeftHand
      direction 0.000000 0.000000 0.000000
      length 0.000000
      axis 0.0 0.0 -90.0 xyz
      dof rx ry rz
   end
   begin
      id 13
      name LeftHand_dum1
      direction 0.000000 0.000000 0.000000
      length 0.000000
      axis 0.0 0.0 -90.0 xyz
   end
   begin
      id 14
      name LeftHand_dum2
      direction 1.000000 0.000000 0.000000
      length 3.937000
      axis 0.0 0.0 -90.0 xyz
   end
   begin
      id 15
      name LeftHandThumb1
      direction 0.000000 0.000000 1.000000
      length 3.937000
      axis 0.0 0.0 -90.0 xyz
      dof rx rz ry
   end
   begin
      id 16
      name RightShoulder
      direction -1.000000 0.000000 0.000000
      length 6.635956
      axis 0.0 0.0 90.0 xyz
      dof rx ry rz
   end
   begin
      id 17
      name RightArm
      direction -1.000000 0.000000 0.000000
      length 10.274218
      axis 0.0 0.0 90.0 xyz
      dof rx ry rz
   end
   begin
      id 18
      name RightForeArm
      direction -1.000000 0.000000 0.000000
      length 8.522147
      axis 0.0 0.0 90.0 xyz
      dof ry rz rx
   end
   begin
      id 19
      name RightHand
      direction 0.000000 0.000000 0.000000
      length 0.000000
      axis 0.0 0.0 90.0 xyz
      dof rx ry rz
   end
   begin
      id 20
      name RightHand_dum1
      direction 0.000000 0.000000 0.000000
      length 0.000000
      axis 0.0 0.0 90.0 xyz
   end
   begin
      id 21
      name RightHand_dum2
      direction -1.000000 0.000000 0.000000
      length 3.937000
      axis 0.0 0.0 90.0 xyz
   end
   begin
      id 22
      name RightHandThumb1
      direction 0.000000 0.000000 1.000000
      length 3.937000
      axis 0.0 0.0 90.0 xyz
      dof rx rz ry
   end
   begin
      id 23
      name LeftUpLeg
      direction 0.000000 -1.000000 0.000000
      length 16.490845
      axis 0.0 0.0 0.0 xyz
      dof rx ry rz
   end
   begin
      id 24
      name LeftLeg
      direction 0.000000 -1.000000 0.000000
      length 14.556576
      axis 0.0 0.0 0.0 xyz
      dof rx ry rz
   end
   begin
      id 25
      name LeftFoot
      direction 0.000000 -0.258819 0.965926
      length 4.831116
      axis 15.0 0.0 0.0 xyz
      dof rx ry rz
   end
   begin
      id 26
      name LeftToeBase
      direction 0.000000 0.000000 1.000000
      length 2.952750
      axis 0.0 0.0 0.0 xyz
      dof rx ry rz
   end
   begin
      id 27
      name RightUpLeg
      direction 0.000000 -1.000000 0.000000
      length 16.490845
      axis 0.0 0.0 0.0 xyz
      dof rx ry rz
   end
   begin
      id 28
      name RightLeg
      direction 0.000000 -1.000000 0.000000
      length 14.556576
      axis 0.0 0.0 0.0 xyz
      dof rx ry rz
   end
   begin
      id 29
      name RightFoot
      direction 0.000000 -0.258819 0.965926
      length 4.831116
      axis 15.0 0.0 0.0 xyz
      dof rx ry rz
   end
   begin
      id 30
      name RightToeBase
      direction 0.000000 0.000000 1.000000
      length 2.952750
      axis 0.0 0.0 0.0 xyz
      dof rx ry rz
   end
:hierarchy
   begin
      root Spine_dum LeftUpLeg_dum RightUpLeg_dum
      Spine_dum Spine
      LeftUpLeg_dum LeftUpLeg
      RightUpLeg_dum RightUpLeg
      Spine Spine_dum1 Spine_dum2 Spine_dum3
      Spine_dum1 Head
      Spine_dum2 LeftShoulder
      Spine_dum3 RightShoulder
      LeftShoulder LeftArm
      LeftArm LeftForeArm
      LeftForeArm LeftHand
      LeftHand LeftHand_dum1 LeftHand_dum2
      LeftHand_dum1 LeftHandThumb1
      RightShoulder RightArm
      RightArm RightForeArm
      RightForeArm RightHand
      RightHand RightHand_dum1 RightHand_dum2
      RightHand_dum1 RightHandThumb1
      LeftUpLeg LeftLeg
      LeftLeg LeftFoot
      LeftFoot LeftToeBase
      RightUpLeg RightLeg
      RightLeg RightFoot
      RightFoot RightToeBase
   end

# File created by Blade
# Date/Time:  Thu Sep 25 17:33:50 2014
# Frame Rate: 120.000 fps
#------------------------------------------------------
:FULLY-SPECIFIED
:DEGREES
359
root -5.847280 32.853426 -2.477327 17.221902 6.633303 19.415030
Spine -3.722707 -9.645495 7.196576
Head -24.476981 26.898970 -16.455449
LeftShoulder 6.655606 7.295144 14.597204
LeftArm 77.746547 32.440652 -41.800254
LeftForeArm 36.795658 -0.000000 111.491283
LeftHand -35.903189 -0.000000 60.062487
LeftHandThumb1 -26.253704 0.000000 33.147579
RightShoulder -12.394860 14.616648 -26.804131
RightArm 18.085235 -29.868568 64.041824
RightForeArm -28.514939 -0.000000 129.973050
RightHand 3.657538 -0.000000 -48.941235
RightHandThumb1 -24.326973 -0.000000 -32.862282
LeftUpLeg -43.189335 13.767477 -17.292661
LeftLeg 55.840039 -0.000000 -0.000000
LeftFoot 12.133208 -8.763383 -37.688119
LeftToeBase -3.626607 -0.000000 0.000000
RightUpLeg -29.598567 -5.952555 -16.242784
RightLeg 34.242387 -0.000000 -0.000000
RightFoot -19.858596 -13.514506 0.681496
RightToeBase 1.293624 -0.000000 -0.000000
360
root -5.827985 32.908171 -2.560413 17.388135 7.221198 20.673052
Spine -3.458398 -9.673110 6.359099
Head -24.557820 26.348007 -16.897436
LeftShoulder 7.246079 6.872540 14.349062
LeftArm 77.574783 32.117611 -41.906665
LeftForeArm 36.514881 -0.000000 111.487093
LeftHand -36.144542 -0.000000 60.046994
LeftHandThumb1 -26.253704 0.000000 33.147579
RightShoulder -12.338812 14.761699 -26.920252
RightArm 18.505837 -29.435052 63.381323
RightForeArm -28.804956 0.000000 129.926083
RightHand 3.494900 -0.000000 -49.271794
RightHandThumb1 -24.326973 -0.000000 -32.862282
LeftUpLeg -45.409623 13.910749 -17.794195
LeftLeg 59.677444 -0.000000 -0.000000
LeftFoot 12.905282 -8.089310 -38.079253
LeftToeBase -5.413812 -0.000000 0.000000
RightUpLeg -29.496251 -6.737732 -17.415954
RightLeg 34.394995 -0.000000 -0.000000
RightFoot -19.845038 -13.572021 1.017083
RightToeBase 1.451446 -0.000000 -0.000000
361
root -5.809841 32.963216 -2.644376 17.527698 7.626106 21.952444
Spine -3.111293 -9.773588 5.370449
Head -24.688004 26.000231 -17.233303
LeftShoulder 7.607767 6.588667 14.173209
LeftArm 77.359399 31.809620 -42.096878
LeftForeArm 36.807023 -0.000000 111.396645
LeftHand -36.314614 -0.000000 60.202509
LeftHandThumb1 -26.253704 0.000000 33.147579
RightShoulder -12.124012 15.073812 -26.984394
RightArm 18.866205 -29.071638 62.902999
RightForeArm -29.127758 -0.000000 129.807753
RightHand 3.314178 -0.000000 -49.776028
RightHandThumb1 -24.326973 -0.000000 -32.862282
LeftUpLeg -47.607903 14.141779 -18.224613
LeftLeg 63.499298 -0.000000 -0.000000
LeftFoot 12.999786 -6.606976 -38.920597
LeftToeBase -3.733263 -0.000000 0.000000
RightUpLeg -29.421365 -7.606767 -18.604835
RightLeg 34.514208 -0.000000 -0.000000
RightFoot -19.776627 -13.377544 1.288796
RightToeBase 1.321258 -0.000000 -0.000000
362
root -5.785197 33.024389 -2.719612 17.628802 7.878165 23.259743
Spine -2.727673 -9.790707 4.299674
Head -24.768031 25.674676 -17.659783
LeftShoulder 7.818014 6.518211 13.990121
LeftArm 77.319553 31.492174 -42.326813
LeftForeArm 37.439689 -0.000000 111.051529
LeftHand -36.237753 -0.000000 61.093582
LeftHandThumb1 -26.253704 0.000000 33.147579
RightShoulder -11.738813 15.431789 -27.101470
RightArm 18.959055 -28.698983 62.610124
RightForeArm -29.198610 -0.000000 129.841491
RightHand 3.289842 -0.000000 -49.687696
RightHandThumb1 -24.326973 -0.000000 -32.862282
LeftUpLeg -49.752071 14.437735 -18.560067
LeftLeg 67.349938 -0.000000 -0.000000
LeftFoot 12.331004 -5.453581 -38.977457
LeftToeBase -1.976659 -0.000000 0.000000
RightUpLeg -29.301945 -8.382016 -19.863684
RightLeg 34.605674 -0.000000 -0.000000
RightFoot -19.691893 -13.284291 1.345913
RightToeBase 1.487048 -0.000000 -0.000000
363
root -5.756600 33.091445 -2.795614 17.740558 8.003918 24.524666
Spine -2.311340 -9.585161 3.228377
Head -24.925793 25.273473 -18.115026
LeftShoulder 8.098516 6.458243 13.780279
LeftArm 77.265380 31.164358 -42.555576
LeftForeArm 37.339126 -0.000000 110.995649
LeftHand -36.531325 -0.000000 61.395149
LeftHandThumb1 -26.253704 0.000000 33.147579
RightShoulder -11.637718 15.619528 -27.302252
RightArm 19.275198 -28.445787 62.387529
RightForeArm -29.452673 -0.000000 129.719437
RightHand 3.041795 -0.000000 -49.810139
RightHandThumb1 -24.326973 -0.000000 -32.862282
LeftUpLeg -51.909526 14.776243 -18.740096
LeftLeg 71.179634 -0.000000 -0.000000
LeftFoot 11.729590 -4.582852 -38.551778
LeftToeBase -1.878997 -0.000000 0.000000
RightUpLeg -29.207947 -9.248670 -21.072136
RightLeg 34.611028 -0.000000 -0.000000
RightFoot -19.531813 -12.965686 1.382607
RightToeBase 1.519336 -0.000000 -0.000000
364
root -5.727344 33.165827 -2.866449 17.852587 8.002611 25.829167
Spine -1.871131 -9.413228 2.046482
Head -25.191558 24.936714 -18.631044
LeftShoulder 8.243898 6.355403 13.550739
LeftArm 76.955602 30.943154 -42.944039
LeftForeArm 37.200940 -0.000000 111.015054
LeftHand -36.432330 -0.000000 61.659314
LeftHandThumb1 -26.253704 0.000000 33.147579
RightShoulder -11.403555 15.884940 -27.497134
RightArm 19.402021 -28.213399 62.363230
RightForeArm -29.499772 -0.000000 129.615150
RightHand 3.122459 -0.000000 -49.600422
RightHandThumb1 -24.326973 -0.000000 -32.862282
LeftUpLeg -53.993124 15.119289 -18.751387
LeftLeg 74.883920 -0.000000 -0.000000
LeftFoot 11.421292 -3.724196 -38.780013
LeftToeBase -1.355131 -0.000000 0.000000
RightUpLeg -29.111781 -10.091285 -22.326413
RightLeg 34.553640 -0.000000 -0.000000
RightFoot -19.347424 -12.667649 1.357872
RightToeBase 1.623190 -0.000000 -0.000000
